<svg width="552" height="398" viewBox="0 0 552 398" fill="none" xmlns="http://www.w3.org/2000/svg">
<rect x="1" y="1" width="550" height="397" rx="89" fill="#020202"/>
<path d="M157.979 97.5295C163.179 51.9295 190.812 28.5295 203.979 22.5295C361.179 -33.0705 474.479 32.0295 511.479 71.5295C567.479 133.129 552.146 244.863 537.479 293.03C533.479 299.03 508.479 298.863 496.479 298.03L454.979 272.53L463.979 224.5C514.479 33 376.514 23.6364 378.979 22.5295C364.179 28.5295 365.812 38.3628 368.479 42.5295C410.879 58.5295 422.812 68.5295 423.479 71.5295C469.979 103.029 453.979 186.029 454.979 193.529C455.779 199.529 441.979 242.363 434.979 263.03C386.979 237.03 214.312 192.196 133.979 173.029C139.812 166.863 152.779 143.129 157.979 97.5295Z" fill="white"/>
<path d="M463.979 303.029C297.579 216.229 163.312 196.863 116.979 198.029C80.479 221.029 8.27904 267.029 11.479 267.029C-14.121 312.629 13.1457 350.029 29.979 363.029C53.179 377.429 97.6457 345.029 116.979 327.029L70.479 301.529C30.4934 299.129 32.8183 284.196 38.979 277.029C52.1791 269.829 80.8124 280.029 93.479 286.029C233.079 383.629 289.312 395.029 299.979 388.529C391.179 384.929 447.312 330.029 463.979 303.029Z" fill="white"/>
<path d="M157.979 97.5295C163.179 51.9295 190.812 28.5295 203.979 22.5295C361.179 -33.0705 474.479 32.0295 511.479 71.5295C567.479 133.129 552.146 244.863 537.479 293.03C533.479 299.03 508.479 298.863 496.479 298.03L454.979 272.53L463.979 224.5C514.479 33 376.514 23.6364 378.979 22.5295C364.179 28.5295 365.812 38.3628 368.479 42.5295C410.879 58.5295 422.812 68.5295 423.479 71.5295C469.979 103.029 453.979 186.029 454.979 193.529C455.779 199.529 441.979 242.363 434.979 263.03C386.979 237.03 214.312 192.196 133.979 173.029C139.812 166.863 152.779 143.129 157.979 97.5295Z" stroke="#050505"/>
<path d="M463.979 303.029C297.579 216.229 163.312 196.863 116.979 198.029C80.479 221.029 8.27904 267.029 11.479 267.029C-14.121 312.629 13.1457 350.029 29.979 363.029C53.179 377.429 97.6457 345.029 116.979 327.029L70.479 301.529C30.4934 299.129 32.8183 284.196 38.979 277.029C52.1791 269.829 80.8124 280.029 93.479 286.029C233.079 383.629 289.312 395.029 299.979 388.529C391.179 384.929 447.312 330.029 463.979 303.029Z" stroke="#050505"/>
<g filter="url(#filter0_d)">
<path d="M205.492 116.035L204.68 118.709C204.501 119.554 204.547 120.185 204.818 120.603C204.843 120.64 204.845 120.706 204.826 120.8C204.812 120.863 204.594 121.046 204.17 121.348C203.777 121.658 203.574 121.843 203.561 121.906C203.524 122.389 203.567 122.725 203.69 122.915C203.814 123.105 203.987 123.289 204.211 123.467C204.834 123.926 205.128 124.234 205.095 124.39C205.015 124.766 204.851 125.156 204.602 125.561C204.39 125.942 204.268 126.21 204.235 126.367C204.208 126.492 204.259 126.715 204.387 127.037C204.515 127.358 204.689 127.542 204.908 127.589C205.542 127.527 206.065 127.376 206.476 127.136C207.281 127.503 208.232 127.803 209.327 128.035C210.454 128.274 211.334 128.215 211.965 127.858C212.501 127.644 212.973 127.581 213.38 127.667C213.507 128.61 213.534 129.254 213.461 129.598C212.922 130.596 212.637 131.173 212.603 131.33C212.57 131.486 211.998 132.101 210.888 133.174C209.784 134.216 208.966 134.909 208.435 135.255C208.151 135.358 206.816 135.255 204.428 134.945L203.187 134.78L201.78 135.169C200.935 134.99 199.768 134.089 198.281 132.465C196.831 130.816 196.139 129.836 196.206 129.523L196.755 129.246C197.121 129.062 197.327 128.861 197.374 128.642C197.42 128.423 197.401 128.206 197.315 127.991C197.23 127.777 197.14 127.66 197.046 127.64C196.984 127.627 196.896 127.657 196.782 127.731C196.706 127.78 196.543 127.779 196.292 127.725L195.225 127.205C195.358 126.579 195.452 125.438 195.509 123.781C195.572 122.094 195.733 120.64 195.992 119.419C196.052 119.137 196.514 118.188 197.38 116.573C198.277 114.964 198.897 114.048 199.238 113.826C199.269 113.833 199.288 113.821 199.295 113.789L199.101 112.62C199.141 112.432 199.92 111.845 201.437 110.858C202.986 109.878 203.98 109.434 204.418 109.527L204.841 109.616C205.279 109.709 205.555 109.719 205.669 109.645C208.11 109.083 209.629 108.865 210.223 108.991C210.818 109.117 211.914 109.578 213.512 110.375C215.147 111.147 215.942 111.642 215.896 111.861C215.51 113.219 215.234 114.289 215.068 115.071C214.909 115.823 214.84 116.299 214.863 116.5C215.488 117.875 215.787 118.626 215.76 118.751C215.74 118.845 215.383 119.064 214.689 119.407C214.001 119.719 213.204 120.008 212.297 120.274C211.422 120.546 210.749 120.633 210.279 120.533C208.429 119.389 207.533 118.675 207.593 118.394C208.106 116.278 208.827 115.041 209.753 114.681C209.528 114.045 209.322 113.706 209.134 113.667C207.852 113.853 207.154 113.983 207.04 114.057C206.047 114.73 205.52 115.207 205.461 115.489L205.492 116.035ZM226.602 128.752L227.24 126.434C227.286 126.215 227.278 126.099 227.216 126.085C226.809 125.999 226.051 126.1 224.943 126.389C223.867 126.684 223.289 127.02 223.209 127.395C223.373 127.855 223.429 128.211 223.376 128.461C223.329 128.68 223.249 128.827 223.135 128.901C222.727 128.978 222.486 129.188 222.413 129.533C222.346 129.846 222.47 130.264 222.784 130.789C223.136 131.289 223.453 131.569 223.735 131.628C224.017 131.688 224.558 131.525 225.36 131.138C226.168 130.721 226.598 130.387 226.652 130.137L226.625 130.033C226.476 129.805 226.469 129.378 226.602 128.752ZM234.73 128.365L234.209 131.984C234.149 132.265 234.088 132.4 234.025 132.386C232.86 132.793 232.187 133.42 232.008 134.265C231.955 134.515 232.143 134.784 232.573 135.072L233.218 135.503L233.066 138.071L233.583 139.8C233.569 139.862 233.402 139.958 233.08 140.086C232.14 140.508 231.451 140.673 231.013 140.58C230.293 140.427 229.423 140.521 228.402 140.861L227.93 141.006L227.836 140.986C227.335 140.88 226.393 140.386 225.01 139.504L224.318 139.063C224.269 138.987 224.267 138.839 224.314 138.62L224.922 136.443L224.962 136.255L224.392 135.938C224.298 135.918 224.089 136.054 223.766 136.345C223.246 136.791 222.094 137.365 220.31 138.066L219.402 138.413C218.494 138.221 217.646 137.747 216.858 136.991C216.1 136.242 215.54 135.567 215.177 134.966C214.82 134.335 214.648 133.987 214.662 133.925C214.675 133.862 214.754 133.797 214.899 133.73C215.272 133.515 215.491 133.25 215.558 132.937C215.677 132.374 215.203 131.832 214.136 131.311L213.649 131.061C213.948 129.652 214.362 128.317 214.891 127.055C215.451 125.8 215.92 124.902 216.296 124.36L216.918 123.51C217.4 123.089 218.755 122.559 220.984 121.919C223.213 121.279 224.954 121.092 226.206 121.357C226.3 121.377 226.433 121.52 226.606 121.786C226.817 122.027 227 122.164 227.157 122.197C227.345 122.237 227.58 122.205 227.864 122.101C228.456 121.932 228.772 121.754 228.811 121.566C228.911 121.097 228.821 120.44 228.542 119.595C228.271 119.178 227.216 118.677 225.377 118.091L224.458 117.798C223.832 117.665 222.906 117.714 221.679 117.945C220.46 118.144 219.818 118.237 219.756 118.224C219.693 118.211 219.576 117.99 219.406 117.561C219.235 117.132 219.166 116.84 219.199 116.683C219.239 116.495 219.657 115.913 220.452 114.937C221.286 113.936 221.829 113.381 222.081 113.27C222.503 113.131 223.741 113.001 225.795 112.88C227.849 112.759 229.298 112.788 230.143 112.967C231.328 114.167 232.411 115.002 233.391 115.471C234.409 115.916 235.327 116.601 236.144 117.527C236.969 118.421 237.308 119.213 237.162 119.901C237.149 119.964 236.923 120.26 236.484 120.788C236.076 121.323 235.832 121.778 235.752 122.154C235.673 122.53 235.681 122.875 235.778 123.19L235.97 123.672C235.639 125.237 235.403 126.12 235.262 126.319C234.772 126.935 234.52 127.274 234.507 127.336L234.79 128.083L234.73 128.365ZM249.185 125.295C249.06 125.269 248.582 125.593 247.752 126.268C246.96 126.917 246.456 127.367 246.24 127.615C246.062 127.839 245.797 128.781 245.445 130.44L245.216 131.52C245.183 131.676 245.281 131.91 245.51 132.22C245.77 132.537 245.886 132.758 245.86 132.883C245.787 133.227 245.371 133.646 244.612 134.139C244.46 134.238 244.248 134.929 243.976 136.213C243.704 137.496 243.631 138.151 243.756 138.178C244.194 138.271 244.675 138.242 245.198 138.091C245.727 137.908 246.162 137.706 246.504 137.484L246.969 137.141C247.159 137.018 247.41 136.679 247.724 136.124C248.045 135.538 248.228 135.135 248.275 134.916L248.226 132.599C248.252 132.474 248.425 132.2 248.744 131.777C249.1 131.329 249.312 130.949 249.378 130.635C249.451 130.291 249.37 129.98 249.135 129.701C248.906 129.391 248.812 129.142 248.851 128.954L250.163 126.239C250.196 126.082 250.073 125.892 249.793 125.67C249.544 125.453 249.342 125.329 249.185 125.295ZM238.762 127.944C238.861 127.474 238.538 126.915 237.792 126.266C237.968 125.747 238.168 124.956 238.394 123.891C238.978 121.137 239.123 119.139 238.83 117.9L238.839 117.853C238.886 117.634 239.462 117.232 240.567 116.649C241.71 116.04 242.501 115.701 242.941 115.631C243.388 115.529 244.3 115.624 245.678 115.916C247.055 116.208 247.717 116.479 247.664 116.73L247.654 116.777C247.122 117.744 246.611 119.385 246.12 121.702C246.328 122.106 246.511 122.324 246.668 122.358C249.603 119.774 251.368 118.545 251.963 118.671C252.746 118.837 253.708 119.156 254.852 119.627C256.033 120.074 256.792 120.578 257.131 121.141C257.038 121.579 256.953 121.904 256.875 122.117C258.248 125.515 258.792 127.888 258.507 129.234C257.403 131.355 256.596 133.621 256.085 136.031C256.059 136.157 255.716 136.231 255.056 136.255C254.428 136.285 254.095 136.395 254.055 136.582C253.968 136.989 254.058 137.417 254.322 137.866C254.618 138.321 254.757 138.596 254.737 138.69C254.717 138.783 254.516 139.035 254.135 139.445C252.933 140.793 251.631 141.924 250.227 142.837C249.626 143.2 248.223 143.491 246.018 143.711C243.837 143.968 242.69 144.134 242.576 144.208C242.494 144.289 242.363 144.752 242.184 145.597L241.892 147.203C241.872 147.297 241.383 147.521 240.425 147.874C240.122 148.071 239.944 148.295 239.89 148.546C239.837 148.796 239.841 149.009 239.902 149.186C239.963 149.362 240.024 149.457 240.087 149.47C240.932 149.65 241.342 149.802 241.315 149.927C240.977 151.523 240.872 152.712 241.001 153.491C240.941 153.773 240.345 154.35 239.211 155.222L238.669 155.696C238.518 155.794 238.222 155.879 237.782 155.949C236.631 156.131 236.032 156.331 235.986 156.55C235.966 156.644 235.502 156.595 234.594 156.402C233.718 156.216 232.761 155.948 231.723 155.597C230.71 155.284 230.223 155.034 230.263 154.846C230.382 154.283 230.8 153.472 231.515 152.413C232.23 151.354 232.597 150.778 232.617 150.684C232.63 150.621 232.535 150.454 232.331 150.182C232.127 149.909 232.038 149.711 232.065 149.586L232.085 149.492C232.876 148.384 233.699 145.81 234.555 141.772L235.023 139.565C235.149 138.97 235.231 138.661 235.269 138.636C235.709 138.566 236.018 138.108 236.198 137.263C236.237 137.075 236.364 135.859 236.578 133.614C236.792 131.37 236.992 129.809 237.178 128.933C237.185 128.902 237.437 128.792 237.935 128.603C238.433 128.414 238.708 128.194 238.762 127.944ZM266.991 136.822L267.217 135.986C267.27 135.736 267.234 135.598 267.109 135.571C266.295 135.398 265.686 135.417 265.282 135.625C264.878 135.834 264.629 135.929 264.535 135.909C264.441 135.889 264.181 135.801 263.756 135.646C263.331 135.49 263.126 135.381 263.139 135.318L263.107 134.772C262.935 134.506 262.316 134.261 261.252 134.035C260.225 133.785 259.651 133.565 259.527 133.375C259.126 132.8 259.048 131.933 259.293 130.774C259.539 129.616 260.048 128.219 260.819 126.584C261.591 124.948 262.151 124.004 262.499 123.75C262.879 123.504 263.867 123.239 265.465 122.956C267.062 122.673 267.88 122.519 267.918 122.495C268.399 122.073 268.735 121.801 268.925 121.678C270.847 121.562 272.481 121.646 273.827 121.931C275.491 122.415 276.401 122.673 276.557 122.706C276.651 122.726 276.826 123.058 277.083 123.701C277.771 125.548 278.012 126.956 277.806 127.927C277.773 128.083 277.496 128.385 276.977 128.831C276.495 129.252 276.207 129.452 276.113 129.433L275.76 129.014C275.003 128.265 274.03 127.764 272.84 127.512C272.277 127.393 271.286 127.592 269.868 128.109C268.488 128.601 267.728 129.176 267.589 129.834C267.579 130.65 267.731 131.091 268.044 131.157C269.274 130.6 270.077 130.361 270.453 130.441C270.86 130.527 271.622 130.869 272.738 131.465C273.886 132.068 274.534 132.483 274.682 132.711C276.705 135.822 277.63 137.785 277.458 138.599C277.292 139.381 276.836 140.528 276.091 142.038C275.384 143.524 274.936 144.246 274.748 144.207L274.701 144.197C273.981 144.044 273.352 144.156 272.815 144.533C272.663 144.631 272.564 144.79 272.517 145.009C272.477 145.197 272.553 145.459 272.744 145.793C272.966 146.135 273.073 146.321 273.067 146.353C272.891 146.872 271.837 147.449 269.903 148.086C268.006 148.698 266.526 148.892 265.462 148.666C265.337 148.64 265.191 148.478 265.025 148.181C264.89 147.891 264.666 147.712 264.353 147.646C264.071 147.586 263.697 147.654 263.231 147.85L262.541 148.096C261.194 147.811 260.023 147.317 259.027 146.615C258.056 145.952 257.466 145.418 257.257 145.013C256.979 144.627 256.762 144.107 256.606 143.453C256.482 142.805 256.453 142.324 256.519 142.011L257.108 141.547C258.311 140.657 259.012 139.743 259.211 138.804C259.231 138.71 259.467 138.596 259.921 138.464C260.374 138.331 260.632 138.271 260.695 138.284C260.789 138.304 260.956 138.519 261.196 138.93C261.878 140.187 262.736 140.925 263.769 141.144C264.05 141.203 264.361 141.204 264.701 141.145C265.078 141.061 265.392 141.046 265.643 141.099C266.363 141.252 267.051 141.169 267.707 140.85C268.352 140.43 268.837 139.764 269.161 138.852C269.227 138.539 268.977 138.175 268.411 137.761C267.845 137.346 267.374 137.099 266.998 137.019C266.967 137.013 266.964 136.947 266.991 136.822ZM289.254 135.75L288.108 140.463C287.889 141.496 287.79 142.195 287.811 142.559C287.791 142.653 287.506 142.838 286.957 143.114C286.408 143.39 286.114 143.622 286.074 143.81L286.014 144.092C285.921 144.53 286 144.776 286.25 144.829C286.86 144.729 287.244 144.696 287.4 144.729C287.588 144.769 287.675 144.82 287.662 144.883C287.341 147.17 287.328 148.541 287.624 148.996C288.511 149.904 288.898 150.624 288.786 151.156C288.759 151.281 288.411 151.535 287.741 151.916C287.072 152.298 286.545 152.546 286.161 152.661C285.399 152.859 284.131 152.901 282.356 152.786L281.444 152.691C281.35 152.671 280.998 152.401 280.389 151.879C279.774 151.389 279.325 151.114 279.043 151.054C278.793 151.001 278.449 150.617 278.011 149.903C277.612 149.164 277.442 148.654 277.502 148.372L277.522 148.278C278.043 147.669 278.739 145.314 279.608 141.213L279.767 140.462C279.78 140.399 279.97 140.276 280.336 140.092C280.734 139.914 280.962 139.685 281.022 139.403C281.082 139.121 281.031 138.898 280.869 138.733C280.708 138.568 280.544 138.418 280.376 138.285C280.208 138.151 280.13 138.053 280.144 137.99C280.549 137.16 280.917 135.962 281.249 134.397C281.587 132.801 281.731 131.964 281.682 131.889C281.633 131.813 281.452 131.742 281.139 131.675C280.857 131.616 280.631 131.6 280.461 131.63C280.298 131.628 280.163 131.648 280.056 131.691C279.987 131.709 279.933 131.73 279.895 131.755C279.857 131.78 279.775 131.779 279.65 131.752C279.525 131.726 279.336 131.538 279.082 131.19C278.86 130.849 278.759 130.631 278.779 130.537C278.859 130.162 279.283 129.319 280.051 128.01C280.819 126.701 281.26 126.009 281.374 125.935C281.488 125.861 281.67 125.851 281.92 125.904L282.849 126.15C283.037 126.19 283.169 126.185 283.245 126.136C283.321 126.086 283.442 125.67 283.608 124.888C283.966 123.197 284.103 121.623 284.019 120.166L283.934 119.412C284 119.099 284.818 118.635 286.388 118.019C287.989 117.41 289.087 117.168 289.682 117.294C291.891 117.828 293.07 118.208 293.218 118.436C293.243 118.474 293.238 118.571 293.205 118.728L290.93 125.066C290.689 126.356 290.643 127.115 290.791 127.342C290.983 127.514 291.314 127.65 291.784 127.749C292.254 127.849 293.059 127.676 294.2 127.231C294.325 127.257 294.482 127.52 294.671 128.018C294.891 128.522 294.975 128.9 294.922 129.15C294.869 129.401 294.441 130.03 293.639 131.037C292.843 132.013 292.031 132.757 291.203 133.269C291.165 133.293 290.943 133.262 290.536 133.176L289.362 132.927C288.423 132.728 287.933 132.723 287.893 132.911C287.774 133.474 287.816 133.892 288.02 134.164C288.255 134.443 288.53 134.616 288.843 134.682C289.156 134.748 289.321 134.816 289.339 134.885C289.395 134.93 289.367 135.218 289.254 135.75ZM294.99 133.482L294.821 132.662C294.867 132.442 295.75 131.828 297.468 130.818C299.225 129.784 300.308 129.229 300.717 129.152C303.202 129.155 304.867 129.246 305.712 129.425C305.806 129.445 306.192 129.707 306.871 130.211C307.549 130.714 307.96 131.014 308.103 131.11C308.253 131.174 308.487 131.535 308.806 132.191C309.132 132.816 309.281 133.191 309.255 133.316C308.912 134.16 308.678 134.568 308.553 134.542C306.561 134.218 305.197 134.174 304.46 134.41C304.113 134.5 303.361 134.962 302.203 135.796C301.083 136.606 300.322 137.262 299.921 137.766C299.558 138.245 299.064 139.956 298.441 142.899C299.262 143.498 299.62 144.048 299.514 144.549C298.858 145.947 298.506 146.756 298.46 146.975C298.42 147.163 298.469 147.55 298.607 148.135C298.744 148.72 298.912 149.164 299.109 149.468C299.526 149.818 299.875 150.023 300.157 150.082C300.47 150.149 300.683 150.145 300.797 150.071C301.707 149.479 302.355 148.275 302.74 146.459C302.826 146.052 302.884 145.623 302.915 145.172C302.464 144.52 302.308 143.865 302.448 143.208C302.468 143.114 302.645 142.972 302.98 142.781C303.321 142.559 303.525 142.292 303.591 141.979C303.658 141.665 303.606 141.295 303.435 140.866C303.264 140.437 303.073 140.102 302.863 139.861C302.659 139.589 302.563 139.422 302.577 139.359C302.663 138.952 303.307 138.304 304.51 137.414C305.744 136.53 306.564 136.132 306.971 136.218L307.629 136.357C310.29 136.921 311.584 137.376 311.511 137.72C311.175 138.532 310.994 139.001 310.967 139.126C310.941 139.251 311.096 139.906 311.434 141.089C311.772 142.273 311.838 143.35 311.633 144.321C310.679 144.806 310.17 145.205 310.103 145.518C310.043 145.799 310.14 146.114 310.394 146.462C310.647 146.81 310.77 147 310.764 147.031C310.704 147.313 310.443 147.928 309.98 148.877C309.524 149.794 309.239 150.519 309.127 151.051C309.014 151.584 308.047 152.442 306.226 153.626C304.494 154.698 303.393 155.184 302.924 155.085L302.877 155.075C302.747 154.916 302.509 154.801 302.165 154.728L301.639 154.665C301.169 154.566 300.758 154.806 300.406 155.385C300.253 155.647 300.103 155.812 299.958 155.879C299.838 155.985 299.449 155.968 298.792 155.828L294.87 154.654C294.134 154.269 293.354 153.547 292.532 152.49C291.74 151.439 291.368 150.804 291.414 150.585C291.421 150.553 291.621 150.383 292.013 150.074C292.413 149.733 292.632 149.469 292.672 149.281C292.738 148.968 292.598 148.628 292.251 148.26L290.557 148.146C290.401 148.113 290.315 147.669 290.3 146.816C290.202 144.963 290.478 142.503 291.128 139.435C291.221 138.997 291.82 137.946 292.925 136.283C294.029 134.62 294.715 133.702 294.98 133.529L294.99 133.482ZM320.663 131.22L322.042 131.66C322.323 131.719 322.615 131.732 322.917 131.698C323.31 132.468 323.479 132.978 323.426 133.229C322.874 134.29 322.439 135.571 322.121 137.074C322.095 137.657 322.286 137.992 322.693 138.078C325.612 135.262 327.401 133.924 328.058 134.063C329.603 134.489 330.792 135.362 331.624 136.684C331.766 138.022 331.701 139.333 331.429 140.617C330.814 142.743 330.397 143.865 330.176 143.982C329.61 144.026 329.218 144.024 328.999 143.978L328.905 143.958C327.937 142.968 327.093 142.396 326.373 142.244C325.653 142.091 324.51 142.47 322.943 143.381C321.376 144.292 320.543 144.982 320.443 145.452C320.302 146.273 320.388 146.716 320.701 146.782C320.971 146.742 321.232 146.748 321.482 146.801C321.733 146.854 321.838 146.974 321.798 147.162C321.19 149.258 320.757 150.916 320.498 152.137C320.246 153.326 320.144 154.041 320.191 154.28C319.86 154.765 319.674 155.102 319.634 155.29C319.594 155.478 319.645 155.93 319.788 156.647C319.961 157.371 320.028 157.827 319.989 158.015C319.929 158.297 319.065 158.669 317.396 159.134C315.759 159.604 314.659 159.78 314.095 159.661C313.563 159.548 312.653 159.289 311.365 158.886C310.07 158.513 309.449 158.202 309.502 157.951C309.515 157.888 309.725 157.361 310.132 156.367C310.57 155.381 310.882 154.449 311.068 153.573L311.654 153.353C312.045 153.207 312.28 152.946 312.36 152.571C312.446 152.164 312.116 151.636 311.37 150.987C311.666 150.363 312.237 148.44 313.084 145.217L313.459 143.677L313.422 140.382C313.429 140.351 313.561 140.264 313.82 140.123C314.086 139.95 314.262 139.66 314.348 139.254C314.434 138.847 314.423 137.896 314.315 136.401C314.206 134.906 314.192 133.97 314.272 133.595C314.351 133.219 314.445 133.01 314.552 132.967C314.659 132.924 314.867 132.87 315.175 132.805C315.49 132.708 315.755 132.617 315.969 132.532C316.183 132.446 316.508 132.302 316.944 132.1C317.417 131.873 317.818 131.68 318.146 131.521C319.072 131.161 319.911 131.061 320.663 131.22ZM342.355 144.552C342.306 144.476 342.318 144.266 342.391 143.921C342.471 143.546 342.728 143.028 343.162 142.367C343.215 142.117 343.022 141.945 342.584 141.852L341.813 141.787C341.228 141.925 340.584 142.492 339.882 143.488C339.85 144.103 339.771 144.707 339.645 145.302C339.526 145.866 339.371 146.209 339.181 146.332C339.179 146.495 339.187 146.693 339.203 146.926C339.25 147.165 339.453 147.518 339.812 147.987C340.171 148.456 340.694 148.763 341.383 148.909C341.602 148.955 341.77 148.778 341.888 148.378C342.006 147.978 342.136 147.515 342.28 146.989C342.425 146.464 342.572 146.151 342.724 146.053C342.914 145.929 343.022 145.805 343.049 145.68C343.108 145.398 342.877 145.022 342.355 144.552ZM347.999 157.278L347.599 161.021C347.559 161.209 347.472 161.386 347.338 161.554C347.236 161.729 346.799 162.094 346.027 162.65C345.286 163.213 344.839 163.625 344.685 163.887C344.569 164.124 343.955 164.321 342.843 164.478C341.755 164.672 341.038 164.733 340.694 164.66C340.381 164.594 340.2 164.523 340.151 164.447C340.132 164.378 340.091 164.189 340.025 163.881C339.927 163.108 339.738 162.691 339.456 162.631C339.08 162.552 338.639 162.704 338.133 163.087C337.657 163.477 337.404 163.669 337.373 163.662C335.557 163.277 333.949 162.609 332.548 161.658C332.031 161.319 331.789 161.072 331.822 160.915C331.901 160.54 331.203 159.361 329.725 157.38L328.955 156.382C328.751 156.11 328.76 155.065 328.982 153.248C329.235 151.437 329.484 149.952 329.729 148.794C329.982 147.604 330.127 146.997 330.165 146.973C330.203 146.948 330.429 146.882 330.845 146.773C331.267 146.634 331.554 146.515 331.705 146.416C331.857 146.317 331.956 146.158 332.003 145.939L332.028 145.356C331.535 144.597 331.292 144.202 331.298 144.171C331.358 143.889 331.888 143.086 332.889 141.76C333.896 140.404 334.703 139.528 335.31 139.133C339.493 137.763 342.398 137.25 344.026 137.595C347.338 138.33 349.154 138.943 349.475 139.437C350.515 141.783 350.839 143.88 350.448 145.727C349.623 145.912 349.082 146.075 348.823 146.217C348.595 146.365 348.438 146.642 348.352 147.049C348.266 147.456 348.41 147.7 348.786 147.779L349.859 147.81C349.953 147.83 349.993 147.871 349.98 147.934C349.442 150.47 348.282 152.317 346.499 153.477C346.006 153.797 344.89 153.97 343.151 153.994C341.45 153.993 340.381 153.946 339.942 153.854C339.817 153.827 339.526 153.504 339.069 152.883C338.611 152.263 338.351 151.946 338.289 151.933C338.257 151.926 338.068 152.05 337.72 152.303C337.371 152.556 337.174 152.793 337.128 153.012C337.31 154.62 337.673 155.842 338.215 156.677C338.413 156.98 338.95 157.225 339.826 157.411C342.456 157.968 344.529 157.753 346.047 156.767C346.529 156.345 346.832 156.148 346.958 156.174C347.114 156.208 347.332 156.336 347.612 156.559C347.93 156.757 348.076 156.918 348.049 157.044L347.999 157.278ZM366.646 137.482C366.732 137.076 366.671 136.67 366.462 136.266C365.993 136.166 365.493 136.208 364.964 136.39C364.473 136.548 364.088 136.744 363.809 136.979L363.401 137.285C362.608 138.557 362.165 139.411 362.072 139.85C361.986 140.256 362.026 140.608 362.192 140.905C362.358 141.202 362.421 141.445 362.381 141.632C362.348 141.789 362.108 142.147 361.663 142.707C361.255 143.242 361.048 143.525 361.041 143.556C360.968 143.901 361.131 144.442 361.531 145.181C361.968 145.895 362.328 146.282 362.61 146.342C362.891 146.402 363.259 146.365 363.712 146.232C364.204 146.075 364.598 145.913 364.895 145.747L365.35 145.451C365.609 145.309 365.874 144.597 366.146 143.314L366.438 141.707C366.57 141.081 366.39 140.389 365.897 139.63C365.872 139.592 365.876 139.495 365.909 139.338L366.596 137.717L366.646 137.482ZM365.952 131.497L368.478 132.081C369.063 131.943 369.528 131.911 369.872 131.984C370.248 132.064 370.679 132.269 371.164 132.601C371.681 132.94 372.145 133.3 372.555 133.681C372.965 134.062 373.185 134.256 373.217 134.263C375.182 136.871 376.056 138.692 375.837 139.725C375.096 140.287 374.706 140.663 374.666 140.851C374.692 141.347 374.85 141.756 375.142 142.08C375.439 142.372 375.288 144.09 374.687 147.234C374.118 150.384 373.875 152.148 373.958 152.525C373.983 152.563 373.985 152.629 373.965 152.723C373.945 152.817 373.704 153.028 373.242 153.355C372.787 153.651 372.533 153.924 372.48 154.175C372.434 154.394 372.45 154.626 372.528 154.872C372.639 155.124 372.743 155.326 372.842 155.478C372.94 155.63 372.986 155.721 372.98 155.753C372.761 156.786 372.362 157.895 371.784 159.081C370.825 161.135 370.063 162.413 369.499 162.915C369.309 163.038 368.878 163.143 368.206 163.229C367.169 163.337 366.611 163.578 366.531 163.954C366.465 164.267 366.592 164.67 366.913 165.163C366.846 165.476 365.758 165.982 363.647 166.679C361.537 167.377 360.216 167.669 359.683 167.556C359.621 167.543 359.577 167.517 359.552 167.48C359.33 167.138 358.844 166.888 358.092 166.729C357.341 166.569 356.667 166.508 356.07 166.545C355.505 166.589 354.988 166.561 354.518 166.462C354.049 166.362 353.292 166.071 352.25 165.588C351.214 165.074 350.594 164.681 350.39 164.409C350.217 164.144 350.089 163.053 350.004 161.138C349.919 159.223 349.926 158.03 350.026 157.561C350.072 157.342 350.595 156.962 351.592 156.421C352.59 155.88 353.308 155.656 353.747 155.749L353.932 156.033C354.102 157.083 354.471 157.963 355.04 158.673C355.61 159.382 356.1 159.846 356.512 160.064C356.962 160.257 357.39 160.397 357.797 160.484C358.548 160.643 359.832 160.375 361.647 159.68L362.555 159.333C362.865 159.104 363.113 158.552 363.299 157.675L363.637 154.459L363.647 154.413C363.7 154.162 364.376 153.749 365.676 153.174L366.319 152.918C366.392 152.574 366.07 152.162 365.354 151.683C364.509 151.504 362.942 151.875 360.653 152.797L359.527 153.245C359.489 153.27 359.408 153.269 359.283 153.242C358.5 153.076 357.137 152.33 355.194 151.002C354.876 150.804 354.462 150.291 353.95 149.462C353.439 148.634 352.999 147.854 352.631 147.122L352.126 146.034L352.267 143.512L354.626 138.173C354.652 138.048 354.555 137.815 354.333 137.473C354.148 137.107 354.063 136.893 354.076 136.83C354.249 136.016 355.52 134.879 357.89 133.419C360.267 131.927 361.867 131.17 362.689 131.148C363.519 131.095 364.606 131.211 365.952 131.497ZM377.788 155.103C377.631 155.07 377.401 154.613 377.097 153.731C377.296 152.791 377.652 151.885 378.164 151.013C378.708 150.146 379.189 149.496 379.608 149.062L380.227 148.457C380.341 148.383 380.82 148.435 381.665 148.614L384.369 149.286C384.933 149.405 385.803 149.001 386.981 148.073C388.166 147.114 388.791 146.478 388.858 146.164C388.924 145.851 388.947 145.513 388.926 145.149C388.936 144.791 388.882 144.354 388.762 143.838C388.649 143.291 388.344 142.801 387.847 142.368C387.35 141.936 386.804 141.657 386.209 141.531C385.145 141.305 383.996 141.323 382.763 141.585L382.14 141.748C381.711 141.918 380.932 142.506 379.803 143.509L379.214 143.973C378.776 143.881 378.261 143.379 377.669 142.468C377.084 141.526 376.817 140.93 376.87 140.68C376.93 140.398 377.701 139.384 379.184 137.637C380.704 135.866 381.62 135.014 381.934 135.08C385.367 135.546 387.503 135.655 388.341 135.408C388.542 135.385 388.987 135.446 389.676 135.592C390.364 135.738 391.647 136.321 393.525 137.34C395.433 138.366 396.659 139.297 397.202 140.131C397.393 140.466 397.483 141.352 397.473 142.789C397.494 144.233 397.471 145.112 397.405 145.425C397.737 146.018 397.89 146.378 397.863 146.503C397.704 147.254 396.862 148.45 395.337 150.089C393.818 151.697 392.887 152.465 392.543 152.392L392.496 152.382C392.053 152.157 391.565 151.988 391.033 151.876C390.501 151.763 390.083 151.805 389.779 152.002C389.467 152.394 389.295 152.668 389.262 152.825C389.235 152.95 389.253 153.019 389.316 153.033C391.444 153.484 393.069 154.695 394.188 156.666C394.686 157.557 394.906 158.143 394.846 158.424C393.893 158.909 393.38 159.324 393.307 159.668C393.431 160.316 393.665 160.677 394.01 160.75C394.73 160.902 395.073 161.057 395.04 161.213C394.721 162.716 394.267 164.321 393.676 166.027C393.092 167.702 392.6 168.71 392.201 169.051C391.84 169.367 390.964 169.95 389.573 170.8C388.189 171.619 387.413 172.043 387.243 172.073C387.073 172.102 386.684 172.085 386.076 172.022C384.491 171.784 383.262 171.949 382.389 172.516C382.086 172.713 381.668 172.756 381.136 172.643C379.978 172.397 378.759 171.975 377.479 171.377L376.757 171.077C375.697 170.525 374.493 170.106 373.147 169.821L372.584 169.702C372.177 169.616 371.939 168.731 371.871 167.048C371.84 165.341 371.898 164.143 372.044 163.454C372.097 163.204 372.651 162.749 373.707 162.089C374.769 161.398 375.347 161.063 375.441 161.083C375.535 161.103 375.807 161.439 376.258 162.09C376.715 162.71 377.326 163.38 378.09 164.098C378.853 164.815 379.517 165.234 380.08 165.354C380.863 165.519 381.528 165.546 382.075 165.433L382.311 164.551C383.375 164.318 384.195 163.92 384.773 163.355C385.382 162.797 385.822 161.877 386.094 160.593C386.187 160.155 385.927 159.298 385.314 158.023L385.001 157.417C384.915 157.203 384.216 156.875 382.903 156.433L382.256 156.247C382.193 156.233 382.117 156.054 382.027 155.708C381.974 155.337 381.886 155.138 381.76 155.111C380.665 154.879 379.561 154.841 378.448 154.998L377.835 155.113L377.788 155.103Z" fill="#0B0B0B"/>
</g>
<defs>
<filter id="filter0_d" x="191.225" y="108.956" width="210.641" height="71.7482" filterUnits="userSpaceOnUse" color-interpolation-filters="sRGB">
<feFlood flood-opacity="0" result="BackgroundImageFix"/>
<feColorMatrix in="SourceAlpha" type="matrix" values="0 0 0 0 0 0 0 0 0 0 0 0 0 0 0 0 0 0 127 0"/>
<feOffset dy="4"/>
<feGaussianBlur stdDeviation="2"/>
<feColorMatrix type="matrix" values="0 0 0 0 0 0 0 0 0 0 0 0 0 0 0 0 0 0 0.25 0"/>
<feBlend mode="normal" in2="BackgroundImageFix" result="effect1_dropShadow"/>
<feBlend mode="normal" in="SourceGraphic" in2="effect1_dropShadow" result="shape"/>
</filter>
</defs>
</svg>
